# AST/ASF file generated using VICON BodyLanguage
# -----------------------------------------------
:version 1.10
:name VICON
:units
  mass 1.0
  length 0.45
  angle deg
:documentation
   .ast/.asf automatically generated from VICON data using
   VICON BodyBuilder and BodyLanguage model FoxedUp or BRILLIANT.MOD
:root
   order TX TY TZ RX RY RZ
   axis XYZ
   position 0 0 0  
   orientation 0 0 0 
:bonedata
  begin
     id 1 
     name lhipjoint
     direction 0.578396 -0.714046 0.394458 
     length 2.21935 
     axis 0 0 0  XYZ
  end
  begin
     id 2 
     name lfemur
     direction 0.34202 -0.939693 0  
     length 6.39105  
     axis 0 0 20  XYZ
    dof rx ry rz
    limits (-160.0 20.0)
           (-70.0 70.0)
           (-60.0 70.0)
  end
  begin
     id 3 
     name ltibia
     direction 0.34202 -0.939693 0   
     length 6.99037   
     axis 0 0 20   XYZ
    dof rx
    limits (-10.0 170.0)
  end
  begin
     id 4 
     name lfoot
     direction 0.0582372 -0.160005 0.985397   
     length 2.06111   
     axis -90 7.62852e-016 20   XYZ
    dof rx rz
    limits (-45.0 90.0)
           (-70.0 20.0)
  end
  begin
     id 5 
     name ltoes
     direction 1.53556e-011 -4.21875e-011 1   
     length 1.04074   
     axis -90 7.62852e-016 20   XYZ
    dof rx
    limits (-90.0 20.0)
  end
  begin
     id 6 
     name rhipjoint
     direction -0.558179 -0.726269 0.40121   
     length 2.182  
     axis 0 0 0  XYZ 
  end
  begin
     id 7 
     name rfemur
     direction -0.34202 -0.939693 0   
     length 6.51172   
     axis 0 0 -20   XYZ
    dof rx ry rz
    limits (-160.0 20.0)
           (-70.0 70.0)
           (-70.0 60.0)
  end
  begin
     id 8 
     name rtibia
     direction -0.34202 -0.939693 0   
     length 7.02607   
     axis 0 0 -20   XYZ
    dof rx
    limits (-10.0 170.0)
 end
 begin
     id 9 
     name rfoot
     direction -0.0788856 -0.216737 0.973038   
     length 1.96734  
     axis -90 -7.62852e-016 -20   XYZ
    dof rx rz
    limits (-45.0 90.0)
           (-20.0 70.0)
  end
  begin
     id 10 
     name rtoes
     direction -1.53567e-011 -4.21783e-011 1   
     length 0.990825   
     axis -90 -7.62852e-016 -20   XYZ
    dof rx
    limits (-90.0 20.0)
  end
  begin
     id 11 
     name lowerback
     direction 0.00668177 0.999323 -0.0361741   
     length 1.7655   
     axis 0 0 0   XYZ
    dof rx ry rz
    limits (-20.0 45.0)
           (-30.0 30.0)
           (-30.0 30.0)
  end
  begin
     id 12 
     name upperback
     direction -0.00222086 0.99851 0.0545167   
     length 1.74912   
     axis 0 0 0   XYZ
    dof rx ry rz
    limits (-20.0 45.0)
           (-30.0 30.0)
           (-30.0 30.0)
  end
  begin
     id 13 
     name thorax
     direction -0.00733971 0.997496 0.0703443   
     length 1.75715   
     axis 0 0 0   XYZ
    dof rx ry rz
    limits (-20.0 45.0)
           (-30.0 30.0)
           (-30.0 30.0)
  end
  begin
     id 14 
     name lowerneck
     direction 0.0279797 0.994795 0.0979765   
     length 1.46939   
     axis 0 0 0   XYZ
    dof rx ry rz
    limits (-20.0 45.0)
           (-30.0 30.0)
           (-30.0 30.0)
  end
  begin
     id 15 
     name upperneck
     direction 0.00339187 0.976776 -0.214238   
     length 1.48018   
     axis 0 0 0   XYZ
    dof rx ry rz
    limits (-20.0 45.0)
           (-30.0 30.0)
           (-30.0 30.0)
  end
  begin
     id 16
     name head
     direction -0.00263506 0.996603 -0.0823096  
     length 1.4976  
     axis 0 0 0   XYZ
    dof rx ry rz
    limits (-20.0 45.0)
           (-30.0 30.0)
           (-30.0 30.0)
  end
  begin
     id 17 
     name lclavicle
     direction 0.894044 0.44508 -0.0508781  
     length 3.03024  
     axis 0 0 0   XYZ
    dof ry rz
    limits (-20.0 10.0)
           (0.0 20.0)
  end
  begin
     id 18 
     name lhumerus
     direction 1 -4.48961e-011 -2.39475e-018   
     length 4.4661   
     axis 180 -30 -90   XYZ
    dof rx ry rz
    limits (-60.0 90.0)
           (-90.0 90.0)
           (-90.0 90.0)
  end
  begin
     id 19
     name lradius
     direction 1 -4.48961e-011 9.29328e-028   
     length 3.41414   
     axis 180 -30 -90   XYZ
    dof rx
    limits (-10.0 170.0)
  end
  begin
     id 20
     name lwrist
     direction 1 -4.48985e-011 1.53461e-026   
     length 1.70707   
     axis -1.09697e-014 90 90   XYZ
    dof ry
    limits (-180.0 0.0)
 end
  begin
     id 21 
     name lhand
     direction 1 -4.48966e-011 3.06923e-026   
     length 0.328298   
     axis -1.95843e-014 90 90   XYZ
    dof rx rz
    limits (-90.0 90.0)
           (-45.0 45.0)
  end
  begin
     id 22 
     name lfingers
     direction 1 -4.48893e-011 6.13845e-026   
     length 0.264682   
     axis -3.91686e-014 90 90   XYZ
    dof rx
    limits (0.0 90.0)
  end
  begin
     id 23
     name lthumb
     direction 0.707107 -6.34876e-011 0.707107   
     length 0.380032   
     axis -90 45 2.85299e-015   XYZ
    dof rx rz
    limits (-45.0 45.0)
           (-45.0 45.0)
  end
  begin
     id 24 
     name rclavicle
     direction -0.936955 0.347862 -0.0332887   
     length 3.26927  
     axis 0 0 0   XYZ 
    dof ry rz
    limits (-10.0 20.0)
           (-20.0 0.0)
  end
  begin
     id 25 
     name rhumerus
     direction -1 -4.4896e-011 1.78637e-018  
     length 4.40431   
     axis 180 30 90   XYZ
    dof rx ry rz
    limits (-90.0 60.0)
           (-90.0 90.0)
           (-90.0 90.0)
  end
  begin
     id 26 
     name rradius
     direction -1 -4.48955e-011 9.34036e-027   
     length 3.04688   
     axis 180 30 90   XYZ
    dof rx
    limits (-10.0 170.0)
  end
  begin
     id 27 
     name rwrist
     direction -1 -4.49011e-011 1.53461e-026   
     length 1.52344   
     axis -1.09697e-014 -90 -90   XYZ
    dof ry
    limits (-180.0 0.0)
  end
  begin
     id 28
     name rhand
     direction -1 -4.48834e-011 3.06923e-026   
     length 0.500489   
     axis -1.95843e-014 -90 -90   XYZ
    dof rx rz
    limits (-90.0 90.0)
           (-45.0 45.0)
  end
  begin
     id 29
     name rfingers
     direction -1 -4.48967e-011 6.13845e-026   
     length 0.403507   
     axis -3.91686e-014 -90 -90   XYZ
    dof rx
    limits (0.0 90.0)
  end
  begin
     id 30
     name rthumb
     direction -0.707107 -6.34826e-011 0.707107   
     length 0.579358   
     axis -90 -45 -2.85299e-015   XYZ
    dof rx rz
    limits (-45.0 45.0)
           (-45.0 45.0)
  end
:hierarchy
  begin
    root lhipjoint rhipjoint lowerback
    lhipjoint lfemur
    lfemur ltibia
    ltibia lfoot
    lfoot ltoes
    rhipjoint rfemur
    rfemur rtibia
    rtibia rfoot
    rfoot rtoes
    lowerback upperback
    upperback thorax
    thorax lowerneck lclavicle rclavicle
    lowerneck upperneck
    upperneck head
    lclavicle lhumerus
    lhumerus lradius
    lradius lwrist
    lwrist lhand lthumb
    lhand lfingers
    rclavicle rhumerus
    rhumerus rradius
    rradius rwrist
    rwrist rhand rthumb
    rhand rfingers
  end

#!OML:ASF H:\IndianDance\Patient Classification 1\Patient 1\Session 1\dancer.ASF
:FULLY-SPECIFIED
:DEGREES
723
root -4.37491 6.055 9.10417 -186.484 -4.17691 -177.001
lowerback 36.6094 0.519721 -2.20329
upperback -1.43247 -1.11215 -1.43742
thorax -20.6518 -0.508998 0.182233
lowerneck -12.7148 -10.2473 -8.34845
upperneck 7.00608 -13.7736 11.4009
head 5.56622 -6.39782 3.58649
rclavicle -2.14687e-014 -4.37326e-014
rhumerus -3.62789 50.9821 -20.3837
rradius 93.7894
rwrist 19.1583
rhand -53.5893 65.9375
rfingers 7.12502
rthumb -26.0301 37.7006
lclavicle -2.14687e-014 -4.37326e-014
lhumerus 20.6099 -51.9858 -4.10992
lradius 104.089
lwrist -18.8778
lhand -66.7436 -39.1616
lfingers 7.12502
lthumb -38.545 -373.513
rfemur -621.541 -77.4613 548.464
rtibia 158.083
rfoot -43.2673 33.2529
rtoes -14.3121
lfemur -279.585 62.9504 -194.04
ltibia 159.22
lfoot -51.5939 -30.5668
ltoes -28.6786
724
root -4.37103 6.15406 9.10381 -186.044 -4.07282 -176.995
lowerback 35.8425 0.293498 -2.19195
upperback -1.47691 -1.36585 -1.52897
thorax -20.3743 -0.610053 0.189241
lowerneck -12.2095 -10.4221 -8.35302
upperneck 6.60696 -14.0508 11.6401
head 5.40596 -6.55409 3.65606
rclavicle -1.17283e-014 -3.65764e-014
rhumerus -3.42997 50.9893 -20.4933
rradius 93.7537
rwrist 19.0542
rhand -53.6187 65.9452
rfingers 7.12502
rthumb -26.0583 37.7126
lclavicle -1.17283e-014 -3.65764e-014
lhumerus 20.9609 -51.9809 -3.50223
lradius 104.521
lwrist -18.5389
lhand -66.8508 -39.3843
lfingers 7.12502
lthumb -38.6461 -373.764
rfemur -614.985 -79.9574 542.926
rtibia 157.305
rfoot -42.0387 32.5793
rtoes -14.9851
lfemur -277.632 63.9114 -193.573
ltibia 158.395
lfoot -51.4479 -29.3169
ltoes -29.657
725
root -4.36669 6.27103 9.10413 -185.536 -3.96893 -177
lowerback 34.9981 0.0840537 -2.20344
upperback -1.52958 -1.59996 -1.60684
thorax -20.0669 -0.700933 0.210531
lowerneck -11.7323 -10.5851 -8.35005
upperneck 6.27604 -14.3106 11.8439
head 5.26734 -6.70131 3.71441
rclavicle -4.57205e-015 -1.74931e-014
rhumerus -3.25191 51.0882 -20.5736
rradius 93.6977
rwrist 18.9617
rhand -53.6499 65.9373
rfingers 7.12502
rthumb -26.0882 37.709
lclavicle -4.57205e-015 -1.74931e-014
lhumerus 21.4175 -52.0556 -2.85482
lradius 104.888
lwrist -18.216
lhand -66.933 -39.3591
lfingers 7.12502
lthumb -38.7236 -373.76
rfemur -602.96 -82.6736 531.986
rtibia 156.375
rfoot -40.6758 31.8549
rtoes -15.6761
lfemur -275.305 65.2241 -192.93
ltibia 157.417
lfoot -51.0691 -28.1238
ltoes -30.4017
726
root -4.36143 6.40381 9.1056 -184.972 -3.87644 -177.022
lowerback 34.094 -0.109148 -2.23886
upperback -1.58916 -1.81775 -1.67495
thorax -19.7339 -0.783611 0.243916
lowerneck -11.2945 -10.7393 -8.34638
upperneck 6.02745 -14.5575 12.0153
head 5.15739 -6.84028 3.76192
rclavicle 3.77691e-015 7.95139e-015
rhumerus -3.09333 51.2712 -20.6158
rradius 93.6254
rwrist 18.8626
rhand -53.6883 65.9261
rfingers 7.12502
rthumb -26.1249 37.7033
lclavicle 3.77691e-015 7.95139e-015
lhumerus 21.9968 -52.1984 -2.17158
lradius 105.183
lwrist -17.9099
lhand -67.0039 -39.1315
lfingers 7.12502
lthumb -38.7906 -373.552
rfemur -576.655 -85.042 506.797
rtibia 155.31
rfoot -39.2306 31.057
rtoes -16.4031
lfemur -272.568 66.9647 -192.017
ltibia 156.298
lfoot -50.4736 -26.9017
ltoes -31.1085
727
root -4.35478 6.55086 9.10851 -184.376 -3.80075 -177.068
lowerback 33.1574 -0.286378 -2.30606
upperback -1.6501 -2.02564 -1.73735
thorax -19.3791 -0.860965 0.292525
lowerneck -10.905 -10.8876 -8.36252
upperneck 5.86297 -14.7952 12.1736
head 5.08125 -6.97168 3.80623
rclavicle 5.1684e-015 -4.92986e-014
rhumerus -2.93724 51.5244 -20.6161
rradius 93.5262
rwrist 18.7526
rhand -53.7334 65.921
rfingers 7.12502
rthumb -26.1681 37.7045
lclavicle 5.1684e-015 -4.92986e-014
lhumerus 22.7097 -52.3967 -1.46712
lradius 105.418
lwrist -17.5753
lhand -67.0494 -38.8937
lfingers 7.12502
lthumb -38.8334 -373.326
rfemur -528.567 -85.4239 459.817
rtibia 154.124
rfoot -37.7383 30.1915
rtoes -17.1277
lfemur -269.379 69.1879 -190.732
ltibia 155.046
lfoot -49.6275 -25.7165
ltoes -31.7256
728
root -4.34689 6.71036 9.11326 -183.757 -3.75332 -177.141
lowerback 32.2084 -0.440436 -2.39388
upperback -1.70679 -2.20806 -1.78407
thorax -19.0041 -0.927397 0.354662
lowerneck -10.5724 -11.045 -8.44241
upperneck 5.77876 -15.0357 12.3194
head 5.04357 -7.10099 3.85179
rclavicle -1.17283e-014 3.18055e-015
rhumerus -2.79848 51.8179 -20.5387
rradius 93.4117
rwrist 18.6141
rhand -53.7689 65.8966
rfingers 7.12502
rthumb -26.2021 37.6852
lclavicle -1.17283e-014 3.18055e-015
lhumerus 23.5985 -52.6296 -0.736553
lradius 105.583
lwrist -17.2406
lhand -67.084 -38.4698
lfingers 7.12502
lthumb -38.8661 -372.912
rfemur -494.189 -83.0687 426.519
rtibia 152.831
rfoot -36.2335 29.2389
rtoes -17.8503
lfemur -265.505 71.9463 -188.792
ltibia 153.675
lfoot -48.514 -24.5428
ltoes -32.307
729
root -4.33763 6.88113 9.12005 -183.145 -3.72903 -177.239
lowerback 31.2798 -0.579675 -2.50153
upperback -1.75496 -2.37994 -1.82651
thorax -18.6195 -0.990198 0.424855
lowerneck -10.306 -11.199 -8.55165
upperneck 5.78133 -15.2666 12.437
head 5.04274 -7.22162 3.88935
rclavicle 1.21259e-014 6.04305e-014
rhumerus -2.64476 52.1422 -20.3953
rradius 93.2742
rwrist 18.4606
rhand -53.7976 65.8572
rfingers 7.12502
rthumb -26.2295 37.6499
lclavicle 1.21259e-014 6.04305e-014
lhumerus 24.6375 -52.8891 0.015681
lradius 105.705
lwrist -16.8042
lhand -67.1108 -38.3934
lfingers 7.12502
lthumb -38.8913 -372.842
rfemur -478.574 -79.587 411.962
rtibia 151.439
rfoot -34.7652 28.1687
rtoes -18.6203
lfemur -260.525 75.2086 -185.731
ltibia 152.189
lfoot -47.1238 -23.4379
ltoes -32.7513
730
root -4.32719 7.06186 9.12891 -182.548 -3.71937 -177.364
lowerback 30.3792 -0.707973 -2.62899
upperback -1.79055 -2.54759 -1.8709
thorax -18.2251 -1.05263 0.499268
lowerneck -10.1185 -11.583 -8.63226
upperneck 5.93099 -15.4743 12.4775
head 5.09227 -7.09046 3.91296
rclavicle 6.95746e-015 -1.59028e-014
rhumerus -2.45241 52.4853 -20.1853
rradius 93.1135
rwrist 18.2999
rhand -53.8184 65.7885
rfingers 7.12502
rthumb -26.2495 37.5842
lclavicle 6.95746e-015 -1.59028e-014
lhumerus 25.8055 -53.1586 0.783239
lradius 105.782
lwrist -16.2625
lhand -67.1344 -38.5827
lfingers 7.12502
lthumb -38.9136 -373.038
rfemur -470.263 -75.7656 404.677
rtibia 149.957
rfoot -33.3487 26.9861
rtoes -19.4294
lfemur -253.201 78.8867 -180.279
ltibia 150.597
lfoot -45.5254 -22.3073
ltoes -33.1922
731
root -4.31606 7.2513 9.13975 -181.98 -3.72081 -177.513
lowerback 29.5199 -0.82452 -2.76564
upperback -1.80699 -2.70586 -1.91568
thorax -17.8208 -1.11359 0.572067
lowerneck -9.99418 -11.7096 -8.78282
upperneck 6.09022 -15.6617 12.5223
head 5.15597 -7.18568 3.92883
rclavicle 6.55989e-015 0
rhumerus -2.21775 52.8255 -19.8976
rradius 92.9359
rwrist 18.125
rhand -53.8208 65.6988
rfingers 7.12502
rthumb -26.2518 37.4948
lclavicle 6.55989e-015 0
lhumerus 27.1029 -53.4267 1.55536
lradius 105.819
lwrist -15.6348
lhand -67.1829 -38.9092
lfingers 7.12502
lthumb -38.9593 -373.377
rfemur -464.957 -71.8727 400.365
rtibia 148.395
rfoot -31.9439 25.7674
rtoes -20.0246
lfemur -239.475 82.7315 -168.363
ltibia 148.91
lfoot -43.7649 -21.1366
ltoes -33.6008
732
root -4.30466 7.4482 9.15234 -181.45 -3.71972 -177.681
lowerback 28.7072 -0.931402 -2.91297
upperback -1.80366 -2.85798 -1.96214
thorax -17.4097 -1.17421 0.644389
lowerneck -9.93558 -11.8125 -8.93847
upperneck 6.31329 -15.815 12.5224
head 5.24328 -7.26336 3.93098
rclavicle 1.15295e-014 -1.59028e-014
rhumerus -1.91958 53.1635 -19.5341
rradius 92.7376
rwrist 17.9325
rhand -53.8076 65.5899
rfingers 7.12502
rthumb -26.2391 37.384
lclavicle 1.15295e-014 -1.59028e-014
lhumerus 28.5071 -53.6991 2.36151
lradius 105.772
lwrist -14.9385
lhand -67.2332 -39.0293
lfingers 7.12502
lthumb -39.0068 -373.511
rfemur -461.11 -68.0242 397.488
rtibia 146.759
rfoot -30.573 24.5193
rtoes -20.4647
lfemur -202.877 85.8264 -133.5
ltibia 147.137
lfoot -41.8962 -19.965
ltoes -33.9089
733
root -4.29343 7.65142 9.16646 -180.966 -3.70854 -177.862
lowerback 27.9495 -1.02755 -3.06512
upperback -1.77993 -3.00078 -2.0117
thorax -16.9973 -1.23348 0.710692
lowerneck -9.92561 -11.8895 -9.09814
upperneck 6.58045 -15.93 12.4839
head 5.34529 -7.32234 3.92297
rclavicle -9.54166e-015 0
rhumerus -1.56892 53.496 -19.1074
rradius 92.5224
rwrist 17.7105
rhand -53.7824 65.472
rfingers 7.12502
rthumb -26.2151 37.2625
lclavicle -9.54166e-015 0
lhumerus 30.0193 -53.9713 3.18035
lradius 105.654
lwrist -14.1468
lhand -67.2886 -38.9026
lfingers 7.12502
lthumb -39.059 -373.399
rfemur -458.068 -64.3074 395.396
rtibia 145.057
rfoot -29.2371 23.284
rtoes -20.7134
lfemur -139.881 85.2007 -72.1744
ltibia 145.286
lfoot -40.0043 -18.7821
ltoes -34.1415
734
root -4.28276 7.85894 9.18178 -180.517 -3.67825 -178.048
lowerback 27.2298 -1.11215 -3.21256
upperback -1.73684 -3.12785 -2.06194
thorax -16.5781 -1.28901 0.765783
lowerneck -9.95589 -11.9394 -9.26531
upperneck 6.87329 -16.0031 12.4133
head 5.45537 -7.36155 3.90857
rclavicle -1.09332e-014 -1.59028e-015
rhumerus -1.17087 53.815 -18.6187
rradius 92.2885
rwrist 17.451
rhand -53.7603 65.3587
rfingers 7.12502
rthumb -26.1939 37.1461
lclavicle -1.09332e-014 -1.59028e-015
lhumerus 31.6404 -54.2346 4.02158
lradius 105.444
lwrist -13.2556
lhand -67.3195 -38.5491
lfingers 7.12502
lthumb -39.0881 -373.054
rfemur -455.568 -60.7661 393.829
rtibia 143.305
rfoot -27.9449 22.0664
rtoes -20.8026
lfemur -112.693 81.6637 -46.5822
ltibia 143.38
lfoot -38.1968 -17.525
ltoes -34.4524
735
root -4.27304 8.06987 9.19829 -180.116 -3.63149 -178.235
lowerback 26.5714 -1.18852 -3.35364
upperback -1.67658 -3.24397 -2.11043
thorax -16.1674 -1.34218 0.814472
lowerneck -10.0099 -11.9614 -9.44832
upperneck 7.1796 -16.0325 12.3197
head 5.56828 -7.38083 3.89325
rclavicle -2.80286e-014 4.77083e-015
rhumerus -0.72397 54.1264 -18.0819
rradius 92.0251
rwrist 17.147
rhand -53.7417 65.2508
rfingers 7.12502
rthumb -26.1761 37.0356
lclavicle -2.80286e-014 4.77083e-015
lhumerus 33.3557 -54.4933 4.90087
lradius 105.135
lwrist -12.254
lhand -67.2968 -37.7928
lfingers 7.12502
lthumb -39.0667 -372.292
rfemur -453.401 -57.4675 392.584
rtibia 141.506
rfoot -26.689 20.9264
rtoes -20.6491
lfemur -101.797 77.7108 -37.2263
ltibia 141.425
lfoot -36.471 -16.3582
ltoes -34.6479
736
root -4.26422 8.2828 9.21628 -179.762 -3.57266 -178.416
lowerback 26.034 -1.2588 -3.49306
upperback -1.28248 -3.34763 -2.13252
thorax -16.1542 -1.39863 0.846171
lowerneck -10.0761 -11.9506 -9.62661
upperneck 7.48904 -16.0127 12.2007
head 5.67645 -7.37791 3.87503
rclavicle -2.14687e-014 -6.83819e-014
rhumerus -0.242621 54.4318 -17.5278
rradius 91.7313
rwrist 16.7977
rhand -53.742 65.1125
rfingers 7.12502
rthumb -26.1764 36.8972
lclavicle -2.14687e-014 -6.83819e-014
lhumerus 35.1528 -54.7498 5.82939
lradius 104.707
lwrist -11.1391
lhand -67.2088 -36.6459
lfingers 7.12502
lthumb -38.9837 -371.121
rfemur -451.473 -54.4369 391.582
rtibia 139.671
rfoot -25.4841 19.8562
rtoes -20.3031
lfemur -95.7648 73.8957 -32.6659
ltibia 139.433
lfoot -34.8289 -15.3338
ltoes -34.7622
